<svg width="37" height="78" viewBox="0 0 37 78" fill="none" xmlns="http://www.w3.org/2000/svg"><path fill-rule="evenodd" clip-rule="evenodd" d="M3.218 74.26a37.688 37.688 0 0 1 15.29-3.218c5.446 0 10.616 1.15 15.289 3.217.416.825.7 1.642.861 2.43.059.278.102.479.124.626a35.27 35.27 0 0 0-16.275-3.95 35.27 35.27 0 0 0-16.275 3.95c.022-.147.066-.348.124-.627a9.68 9.68 0 0 1 .862-2.429zm3.864-51.95a16.048 16.048 0 0 0-1.466-1.639l-1.57-9.015 1.146-.195 1.89 10.849zm22.836 0c.454-.582.944-1.132 1.466-1.639l1.57-9.015-1.146-.195-1.89 10.849zm-15.394-2.715c-.41.636-.776 1.313-1.102 2.01L12.95 6.508l1.163-.035.41 13.122zm7.952 0c.41.636.776 1.313 1.102 2.01l.472-15.097-1.163-.035-.41 13.122zM12.107 50.677c.002-4.792.876-8.971.88-11.016.005-2.703-3.922-13.832 4.044-21.24.436-.405.802-.376.517.275-3.61 8.247-.554 17.956-.649 20.574-.09 2.502-.839 7.807-.21 14.476-.408-1.017-2.086-2.713-4.582-3.07zm12.786 0c-.002-4.792-.876-8.971-.88-11.016-.005-2.703 3.922-13.832-4.044-21.24-.436-.405-.802-.376-.517.275 3.61 8.247.554 17.956.649 20.574.09 2.502.839 7.807.21 14.476.408-1.017 2.086-2.713 4.582-3.07z" fill="#ECDFCF"/><path fill-rule="evenodd" clip-rule="evenodd" d="M9.837 50.735c-.859-4.92-2.15-8.645-2.636-10.63-.623-2.546.406-12.664-4.8-20.03-.411-.581-.058-.682.45-.372 9.305 5.683 7.71 17.365 8.262 20.01.451 2.163 2.399 6.56 3.308 11.751-1.176-.663-2.743-1.075-4.584-.73zm17.327 0c.858-4.92 2.15-8.645 2.635-10.63.623-2.546-.406-12.664 4.8-20.03.411-.581.059-.682-.45-.372-9.305 5.683-7.71 17.365-8.262 20.01-.45 2.163-2.399 6.56-3.308 11.751 1.177-.663 2.743-1.075 4.585-.73zm-19.826 7.91c-.256-2.087.467-4.363 3.03-5.355 3.804-1.468 6.316 2.525 6.396 4.06 0 0 .256-.268.241-.572a2.744 2.744 0 0 0-.058-.477v-.009a3.922 3.922 0 0 0-.175-.668c-.497-1.668-1.147-2.521-1.636-2.465v-.003a.563.563 0 0 0-.73-.523.62.62 0 0 0-.628-.547.625.625 0 0 0-.3.075.687.687 0 0 0-.656-.464.683.683 0 0 0-.446.163.716.716 0 0 0-.642-.381.725.725 0 0 0-.607.327.763.763 0 0 0-.59-.275.774.774 0 0 0-.738.511.78.78 0 0 0-.526-.2.758.758 0 0 0-.767.7.799.799 0 0 0-.387-.1.758.758 0 0 0-.774.746c0 .047 0 .092.015.136a.802.802 0 0 0-.197-.025.76.76 0 0 0-.774.747c0 .13.029.252.095.359a.757.757 0 0 0-.862.741.71.71 0 0 0 .205.506.755.755 0 0 0-.672.74c0 .266.138.499.358.63a.75.75 0 0 0-.606.73c0 .318.204.59.496.697v.018a.752.752 0 0 0-.504.7c0 .364.27.667.628.734v.01a.744.744 0 0 0-.38.643c0 .113.03.22.073.317a3.805 3.805 0 0 1 1.629-.378l.073.002-.022-.085a2.149 2.149 0 0 1-.051-.485l.014-.127c.022-.198.11-.428.11-.428.087-.217.212-.482.365-.724zm22.326 0c.256-2.087-.467-4.363-3.03-5.355-3.804-1.468-6.316 2.525-6.396 4.06 0 0-.256-.268-.241-.572a2.77 2.77 0 0 1 .058-.477v-.009c.037-.218.095-.442.175-.668.497-1.668 1.147-2.521 1.636-2.465v-.003a.563.563 0 0 1 .73-.523.62.62 0 0 1 .628-.547c.11 0 .212.027.3.075a.687.687 0 0 1 .656-.464c.168 0 .33.061.446.163a.716.716 0 0 1 .642-.381c.256 0 .475.13.607.327a.763.763 0 0 1 .59-.275c.344 0 .636.214.738.511a.78.78 0 0 1 .526-.2c.41 0 .745.31.767.7a.8.8 0 0 1 .387-.1c.43 0 .774.334.774.746 0 .047 0 .092-.015.136a.802.802 0 0 1 .197-.025.76.76 0 0 1 .774.747c0 .13-.029.252-.095.359a.757.757 0 0 1 .862.741.713.713 0 0 1-.204.506c.38.047.671.361.671.74a.731.731 0 0 1-.358.63.75.75 0 0 1 .606.73c0 .318-.204.59-.496.697v.018c.292.106.504.38.504.7 0 .364-.27.667-.628.734v.01c.226.13.38.37.38.643 0 .113-.03.22-.073.317a3.805 3.805 0 0 0-1.629-.378l-.073.002.022-.085a2.15 2.15 0 0 0 .051-.485l-.014-.127c-.022-.198-.11-.428-.11-.428a4.644 4.644 0 0 0-.365-.724z" fill="#fff"/><path fill-rule="evenodd" clip-rule="evenodd" d="M8.086 68.928c5.522-3.836 7.343-5.448 6.29-7.648-1.055-2.201-3.008-2.307-3.008-2.307.096-.334.693-.632 1.217-.78 2.054-.577 5.547.023 6.55 3.893 1.17 4.519-1.789 7.252-5.826 10.748-.404.35-.82.707-1.242 1.075l-.055.048a35.142 35.142 0 0 0-9.79 3.358c.027-.148.068-.348.125-.627.222-1.091.683-2.24 1.407-3.384 1.035-2.157 2.757-5.71 2.743-6.855-1.304-.326-2.203.006-2.932.352-.73.346-1.02.76-1.263 1.16-.569.097-1.304-.102-1.573-.438-.284-.354-.066-1.151-.18-1.706 3.207-2.31 3.861-5.575 7.686-4.47-.213-.226-.944-.91-.686-1.674.147-.434.503-.883.754-1.098.8 2.665 1.455 3.571 1.75 3.91.652.752 1.181 1.838 1.573 2.936-.913.968-2.723 2.4-3.54 3.507z" fill="#fff"/><path fill-rule="evenodd" clip-rule="evenodd" d="M28.913 68.928c-5.52-3.836-7.342-5.448-6.288-7.648 1.054-2.201 3.007-2.307 3.007-2.307-.096-.334-.693-.632-1.217-.78-2.054-.577-5.547.023-6.55 3.893-1.17 4.519 1.789 7.252 5.826 10.748.404.35.82.707 1.242 1.075l.055.048a35.123 35.123 0 0 1 9.79 3.358c-.027-.148-.068-.348-.125-.627-.222-1.091-.683-2.24-1.407-3.384-1.035-2.157-2.757-5.71-2.743-6.855 1.304-.326 2.203.006 2.932.352.73.346 1.02.76 1.263 1.16.569.097 1.304-.102 1.573-.438.284-.354.066-1.151.18-1.706-3.207-2.31-3.86-5.575-7.686-4.47.213-.226.944-.91.686-1.674-.147-.434-.503-.883-.754-1.098-.8 2.665-1.455 3.571-1.75 3.91-.652.752-1.181 1.838-1.573 2.936.913.968 2.723 2.4 3.54 3.507zM13.591 8.389c.001-.002 1.093-1.293 1.606-2.456.321-.732.322-1.468.021-2.207C14.715 2.49 13.353.747 13.352.745c-.003.002-1.252 1.826-1.677 3.09-.255.756-.207 1.49.16 2.2.584 1.13 1.755 2.352 1.756 2.354zm9.818 0c-.001-.002-1.093-1.293-1.606-2.456-.321-.732-.322-1.468-.021-2.207.503-1.235 1.865-2.979 1.866-2.981.003.002 1.252 1.826 1.676 3.09.256.756.208 1.49-.16 2.2-.583 1.13-1.754 2.352-1.755 2.354zM4.945 13.43c0-.002.9-1.43 1.244-2.653.215-.768.112-1.497-.29-2.188-.671-1.154-2.266-2.693-2.267-2.696-.002.003-.983 1.98-1.225 3.29-.147.785.004 1.505.468 2.158.737 1.039 2.068 2.087 2.07 2.089zm27.11 0c0-.002-.9-1.43-1.244-2.653-.215-.768-.113-1.497.29-2.188.671-1.154 2.265-2.693 2.267-2.696.002.003.983 1.98 1.225 3.29.146.785-.004 1.505-.468 2.158-.737 1.039-2.068 2.087-2.07 2.089z" fill="#fff"/></svg>