<svg width="40" height="16" viewBox="0 0 40 16" fill="none" xmlns="http://www.w3.org/2000/svg"><path fill-rule="evenodd" clip-rule="evenodd" d="M20.02.018c.856.765 1.13 1.968.812 3.064 0 0 1.168-2.123 4.197-2.123 3.327 0 4.945 2.99 4.945 4.928 0 2.4-1.758 4.387-4.121 4.387-2.449 0-3.357-1.81-3.357-3.028 0-1.663 1.248-2.288 2.198-2.288.837 0 .892.496.892.496-1.708 0-1.821 2.781.146 2.781 2.685 0 2.637-4.727-.961-4.727-2.836 0-3.865 2.23-3.865 4.278 0 1.664.953 4.978 4.68 4.978 5.2 0 4.694-5.818 9.655-5.818 2.82 0 4.759 2.008 4.759 4.844 0 3.043-2.476 4.21-4.174 4.21-2.069 0-3.186-1.639-3.186-3.043 0-1.406.94-2.222 2.059-2.222 1.053 0 1.114.815 1.126.879.001 0 .002.002.001.003l-.001-.003c-.06-.045-1.579-.276-1.579 1.15 0 1.03.791 1.39 1.642 1.39 2.466 0 2.827-4.9-1.105-4.9-3.158 0-4.411 6.26-9.197 6.274-4.203.012-5.581-3.13-5.586-3.143-.005.012-1.383 3.155-5.586 3.143-4.786-.014-6.039-6.273-9.197-6.273-3.932 0-3.571 4.898-1.105 4.898.851 0 1.642-.358 1.642-1.389 0-1.426-1.519-1.195-1.579-1.15 0 .004-.001.005-.001.003-.001-.001 0-.002.001-.003.012-.064.073-.879 1.126-.879 1.119 0 2.059.816 2.059 2.222C7.36 14.36 6.243 16 4.174 16 2.476 16 0 14.833 0 11.79c0-2.836 1.939-4.844 4.759-4.844 4.961 0 4.455 5.818 9.655 5.818 3.727 0 4.68-3.314 4.68-4.978 0-2.047-1.029-4.278-3.865-4.278-3.598 0-3.646 4.727-.961 4.727 1.967 0 1.854-2.781.146-2.781 0 0 .055-.496.892-.496.95 0 2.198.625 2.198 2.288 0 1.217-.908 3.028-3.357 3.028-2.363 0-4.121-1.988-4.121-4.387 0-1.938 1.618-4.928 4.945-4.928 3.029 0 4.197 2.123 4.197 2.123C18.847 1.978 19.128.764 20 0l.02.018z" fill="#DEAA62"/></svg>