<svg width="75" height="121" viewBox="0 0 75 121" fill="none" xmlns="http://www.w3.org/2000/svg"><path fill-rule="evenodd" clip-rule="evenodd" d="M17.25 98.468a49.509 49.509 0 0 1 20.257-4.306 49.509 49.509 0 0 1 20.258 4.306 13.094 13.094 0 0 1 1.142 3.251c.077.372.135.641.164.838a46.355 46.355 0 0 0-21.564-5.285c-7.778 0-15.12 1.91-21.564 5.285.03-.197.088-.466.165-.838a13.09 13.09 0 0 1 1.141-3.251zm5.12-69.526a21.387 21.387 0 0 0-1.943-2.194l-2.08-12.065 1.519-.261 2.504 14.52zm30.256 0a21.386 21.386 0 0 1 1.943-2.194l2.08-12.065-1.52-.261-2.503 14.52zM32.23 25.308a22.947 22.947 0 0 0-1.46 2.69l-.625-20.204 1.541-.047.544 17.561zm10.536 0a22.947 22.947 0 0 1 1.46 2.69l.626-20.204-1.542-.047-.544 17.561zM29.028 66.906c.002-6.413 1.16-12.006 1.166-14.743.006-3.616-5.197-18.512 5.358-28.426.577-.542 1.062-.503.684.368-4.783 11.037-.733 24.031-.859 27.535-.12 3.349-1.112 10.448-.28 19.374-.54-1.362-2.763-3.631-6.07-4.108zm16.94 0c-.002-6.413-1.16-12.006-1.166-14.743-.007-3.616 5.197-18.512-5.358-28.426-.577-.542-1.062-.503-.684.368 4.783 11.037.733 24.031.859 27.535.12 3.349 1.112 10.448.279 19.374.54-1.362 2.764-3.631 6.07-4.108z" fill="#AD8348"/><path fill-rule="evenodd" clip-rule="evenodd" d="M26.02 66.984c-1.138-6.583-2.85-11.57-3.493-14.226-.826-3.408.539-16.948-6.36-26.807-.544-.778-.077-.913.597-.497 12.328 7.605 10.215 23.239 10.947 26.78.597 2.894 3.178 8.778 4.383 15.726-1.56-.887-3.635-1.438-6.075-.975zm22.957 0c1.137-6.583 2.849-11.57 3.492-14.226.826-3.408-.539-16.948 6.36-26.807.544-.778.077-.913-.597-.497-12.328 7.605-10.215 23.239-10.947 26.78-.597 2.894-3.178 8.778-4.383 15.726 1.56-.887 3.635-1.438 6.075-.975z" fill="#D9A158"/><path fill-rule="evenodd" clip-rule="evenodd" d="M22.709 77.572c-.34-2.794.619-5.84 4.014-7.167 5.04-1.966 8.369 3.379 8.475 5.431 0 0 .339-.357.32-.764a3.707 3.707 0 0 0-.078-.638v-.012a5.298 5.298 0 0 0-.232-.894c-.658-2.233-1.52-3.375-2.167-3.3v-.004a.75.75 0 0 0-.968-.7.825.825 0 0 0-.832-.732.822.822 0 0 0-.396.1.911.911 0 0 0-.871-.62.9.9 0 0 0-.59.218.948.948 0 0 0-.852-.51.959.959 0 0 0-.802.438 1.007 1.007 0 0 0-.784-.368c-.455 0-.842.286-.977.684a1.028 1.028 0 0 0-.697-.27c-.542 0-.987.416-1.016.939a1.05 1.05 0 0 0-.512-.134 1.01 1.01 0 0 0-1.026.998c0 .063 0 .123.02.183a1.05 1.05 0 0 0-.261-.034 1.01 1.01 0 0 0-1.026 1 .91.91 0 0 0 .126.48 1.007 1.007 0 0 0-1.142.992c0 .261.097.499.271.677-.503.063-.89.484-.89.992a.98.98 0 0 0 .474.843c-.464.1-.803.498-.803.976 0 .426.27.789.658.933v.024a1.006 1.006 0 0 0-.668.937c0 .487.358.892.832.981v.014a.998.998 0 0 0-.503.86c0 .152.039.296.097.425.687-.321 1.403-.51 2.157-.505l.097.001-.029-.114a2.907 2.907 0 0 1-.068-.648l.02-.17c.029-.264.145-.573.145-.573.116-.29.28-.645.483-.97zm29.581 0c.339-2.794-.62-5.84-4.015-7.167-5.04-1.966-8.368 3.379-8.475 5.431 0 0-.338-.357-.319-.764.01-.207.03-.42.078-.638v-.012c.048-.292.125-.592.232-.894.658-2.233 1.519-3.375 2.167-3.3v-.004a.75.75 0 0 1 .967-.7.825.825 0 0 1 .832-.732c.145 0 .28.037.397.1a.911.911 0 0 1 .87-.62.9.9 0 0 1 .59.218.948.948 0 0 1 .852-.51c.339 0 .629.175.803.438.184-.225.464-.368.784-.368.454 0 .841.286.977.684.184-.167.425-.27.696-.27.542 0 .987.416 1.016.939a1.05 1.05 0 0 1 .513-.134c.57 0 1.025.447 1.025.998 0 .063 0 .123-.02.183.088-.022.175-.034.262-.034.57 0 1.026.449 1.026 1a.909.909 0 0 1-.126.48 1.007 1.007 0 0 1 1.142.992.954.954 0 0 1-.272.677c.503.063.89.484.89.992a.98.98 0 0 1-.474.843 1 1 0 0 1 .803.976c0 .426-.27.789-.657.933v.024c.387.142.667.508.667.937 0 .487-.358.892-.832.981v.014c.3.174.503.495.503.86 0 .152-.038.296-.096.425-.687-.321-1.403-.51-2.158-.505l-.097.001.03-.114a2.9 2.9 0 0 0 .067-.648l-.02-.17c-.028-.264-.144-.573-.144-.573a6.235 6.235 0 0 0-.484-.97z" fill="#DEAA62"/><path fill-rule="evenodd" clip-rule="evenodd" d="M23.7 91.334c7.316-5.135 9.729-7.293 8.333-10.237-1.397-2.945-3.985-3.087-3.985-3.087.128-.447.918-.847 1.613-1.043 2.721-.774 7.35.03 8.677 5.21 1.55 6.046-2.369 9.705-7.718 14.383-.536.469-1.085.947-1.645 1.44-.025.02-.049.043-.073.064a46.239 46.239 0 0 0-12.971 4.493c.035-.197.09-.465.164-.838.295-1.461.905-3 1.865-4.53 1.371-2.887 3.653-7.642 3.635-9.174-1.728-.436-2.919.008-3.885.47-.966.464-1.352 1.019-1.673 1.553-.754.13-1.729-.135-2.085-.585-.376-.474-.088-1.541-.24-2.283 4.25-3.093 5.117-7.462 10.186-5.982-.283-.303-1.252-1.22-.909-2.242.194-.58.666-1.182.998-1.468 1.062 3.565 1.928 4.779 2.319 5.233.864 1.005 1.565 2.459 2.084 3.929-1.21 1.295-3.607 3.212-4.69 4.694z" fill="#DEAA62"/><path fill-rule="evenodd" clip-rule="evenodd" d="M51.295 91.334c-7.315-5.135-9.728-7.293-8.332-10.237 1.397-2.945 3.985-3.087 3.985-3.087-.128-.447-.918-.847-1.613-1.043-2.721-.774-7.35.03-8.677 5.21-1.55 6.046 2.369 9.705 7.718 14.383.536.469 1.085.947 1.645 1.44.025.02.049.043.073.064a46.24 46.24 0 0 1 12.971 4.493c-.034-.197-.09-.465-.164-.838-.295-1.461-.905-3-1.865-4.53-1.371-2.887-3.653-7.642-3.635-9.174 1.728-.436 2.919.008 3.885.47.966.464 1.352 1.019 1.673 1.553.755.13 1.729-.135 2.085-.585.376-.474.088-1.541.24-2.283-4.25-3.093-5.117-7.462-10.186-5.982.283-.303 1.252-1.22.91-2.242-.195-.58-.667-1.182-1-1.468-1.06 3.565-1.927 4.779-2.318 5.233-.864 1.005-1.565 2.459-2.084 3.929 1.21 1.295 3.607 3.212 4.69 4.694zM30.993 10.31c.001-.002 1.449-1.729 2.127-3.286.427-.979.428-1.964.03-2.954-.667-1.653-2.471-3.986-2.473-3.99-.004.004-1.659 2.445-2.222 4.136-.338 1.012-.274 1.995.212 2.945.773 1.513 2.324 3.147 2.326 3.15zm13.01 0c-.002-.002-1.449-1.729-2.128-3.286-.426-.979-.427-1.964-.029-2.954.667-1.653 2.471-3.986 2.473-3.99.003.004 1.658 2.445 2.221 4.136.339 1.012.275 1.995-.21 2.945-.774 1.513-2.325 3.147-2.327 3.15zm-24.465 6.748c0-.003 1.193-1.915 1.648-3.551.286-1.028.15-2.004-.383-2.929-.89-1.544-3.003-3.604-3.005-3.607-.003.004-1.302 2.65-1.623 4.403-.194 1.05.006 2.014.62 2.888.977 1.39 2.74 2.793 2.743 2.796zm35.92 0c-.001-.003-1.194-1.915-1.648-3.551-.286-1.028-.15-2.004.383-2.929.89-1.544 3.002-3.604 3.005-3.607.002.004 1.301 2.65 1.623 4.403.194 1.05-.006 2.014-.62 2.888-.977 1.39-2.74 2.793-2.743 2.796z" fill="#DEAA62"/><path d="M1.414 109.989l-1.411-.186v-.775h3.28l5.872 7.568.987 1.644v-8.251l-1.534-.186v-.775h4.161v.775l-1.41.186v10.562H9.966l-5.996-7.739-1.357-2.047v8.871l1.675.155v.76H.003v-.76l1.41-.171v-9.631zm14.386 0l-1.64-.186v-.775h5.183v.775l-1.64.186v9.647l1.64.171v.744h-5.166v-.76l1.622-.155v-9.647zm11.184 10.733c-1.293 0-2.398-.243-3.315-.729a4.993 4.993 0 0 1-2.063-2.079c-.47-.889-.705-1.933-.705-3.132 0-1.158.276-2.182.829-3.071a5.575 5.575 0 0 1 2.274-2.063c.964-.496 2.046-.744 3.245-.744.905 0 1.992.124 3.262.372l.582.093-.176 2.792h-1.182l-.44-1.97c-.165-.124-.453-.227-.865-.31-.4-.093-.893-.14-1.48-.14-.753 0-1.423.192-2.011.574-.588.372-1.052.925-1.393 1.66-.33.734-.494 1.612-.494 2.636 0 .972.147 1.856.441 2.652.294.796.74 1.432 1.34 1.908.6.465 1.34.698 2.222.698.623 0 1.099-.047 1.428-.14.341-.093.63-.227.864-.403l.74-1.52 1.112.124-.424 2.202c-.246.011-.61.083-1.093.217-.423.114-.834.202-1.234.264a8.221 8.221 0 0 1-1.464.109zm11.332-10.733l-1.41-.186v-.775h3.279l5.872 7.568.987 1.644v-8.251l-1.534-.186v-.775h4.162v.775l-1.411.186v10.562h-1.393l-5.995-7.739-1.358-2.047v8.871l1.675.155v.76h-4.285v-.76l1.41-.171v-9.631zm14.068 0l-1.446-.186v-.775h2.38c.4 0 .906-.021 1.517-.062.565-.042.982-.062 1.252-.062 1.622 0 2.78.222 3.474.667.705.444 1.058 1.096 1.058 1.954 0 .734-.241 1.365-.723 1.892-.482.527-1.14.858-1.975.992 1.129-.02 2.016.212 2.663.698.646.486.97 1.148.97 1.985 0 1.045-.424 1.898-1.27 2.559-.835.662-2.222.993-4.162.993-.423 0-.828-.015-1.216-.046a73.724 73.724 0 0 0-1.64-.047H50.92v-.76l1.463-.155v-9.647zm1.87 4.126c.164.01.499.015 1.004.015h.97c.823 0 1.446-.201 1.87-.605.422-.403.634-.977.634-1.721 0-.724-.212-1.251-.635-1.582-.423-.341-1.146-.512-2.169-.512-.423 0-.858.021-1.304.062l-.37.031v4.312zm0 5.567c.27.083.881.125 1.833.125 1.188 0 2.046-.212 2.575-.636.54-.435.81-1.055.81-1.861 0-.796-.234-1.375-.705-1.737-.458-.362-1.205-.543-2.239-.543-1.2 0-1.957.01-2.275.031v4.621zm18.224.869c-.2 0-.458-.207-.775-.62a47.52 47.52 0 0 1-1.323-1.986c-.07-.113-.27-.418-.6-.915-.317-.506-.617-.94-.899-1.302a7.456 7.456 0 0 0-.723-.853l-1.78 1.768v2.993l1.604.155v.76h-4.955v-.76l1.464-.155v-9.647l-1.446-.186v-.775h4.796v.775l-1.464.186v5.429l5.184-5.429-1.48-.186v-.775h4.355v.775l-1.358.186-3.809 3.754c.412.31.847.76 1.305 1.349.47.589 1.04 1.349 1.71 2.28.576.796.994 1.364 1.252 1.706.27.33.482.511.635.542l.829.171v.76h-2.522z" fill="#484A56"/></svg>